Coordinates
version=1
nRows=49
nColumns=12
inDegrees=yes

Units are S.I. units (second, meters, Newtons, ...)
Angles are in degrees

endheader
time	SC_y	SC_z	SC_x	AC_y	AC_z	AC_x	GH_y	GH_z	GH_yy	EL_x	PS_y
       0.0              -16.11          -2.33          12.84           36.5          8.656          -4.66         -97.05          41.76          85.97          91.39           81.4
  0.008302              -16.12          -2.33          12.85           36.5          8.654         -4.659         -97.04          41.76          85.96          91.39          81.41
    0.0166              -16.13          -2.33          12.86           36.5          8.651         -4.659         -97.03          41.77          85.96          91.38          81.42
   0.02491              -16.13          -2.33          12.87           36.5          8.649         -4.659         -97.01          41.77          85.95          91.37          81.43
   0.03321              -16.14          -2.33          12.88          36.51          8.646         -4.658          -97.0          41.77          85.95          91.37          81.44
   0.04151              -16.15          -2.33          12.89          36.51          8.643         -4.657         -96.98          41.78          85.94          91.36          81.45
   0.04981              -16.15          -2.33           12.9          36.51           8.64         -4.657         -96.96          41.78          85.93          91.35          81.46
   0.05812              -16.16          -2.33          12.91          36.51          8.637         -4.656         -96.94          41.78          85.93          91.34          81.47
   0.06642              -16.17         -2.329          12.92          36.51          8.633         -4.656         -96.92          41.79          85.92          91.33          81.48
   0.07472              -16.18         -2.329          12.94          36.51           8.63         -4.655          -96.9          41.79          85.91          91.32          81.49
   0.08302              -16.19         -2.329          12.95          36.51          8.626         -4.654         -96.88           41.8           85.9          91.31          81.51
   0.09132               -16.2         -2.329          12.97          36.51          8.621         -4.653         -96.85           41.8          85.89           91.3          81.52
   0.09963              -16.21         -2.329          12.98          36.52          8.617         -4.652         -96.83          41.81          85.88          91.29          81.54
    0.1079              -16.22         -2.328           13.0          36.52          8.612         -4.651          -96.8          41.81          85.87          91.28          81.55
    0.1162              -16.24         -2.328          13.02          36.52          8.606          -4.65         -96.77          41.82          85.86          91.26          81.57
    0.1245              -16.25         -2.328          13.04          36.52            8.6         -4.649         -96.73          41.82          85.85          91.25          81.59
    0.1328              -16.27         -2.328          13.07          36.52          8.594         -4.648          -96.7          41.83          85.84          91.23          81.61
    0.1411              -16.28         -2.327          13.09          36.53          8.587         -4.647         -96.66          41.84          85.82          91.21          81.64
    0.1494               -16.3         -2.327          13.12          36.53          8.579         -4.645         -96.61          41.85          85.81          91.19          81.66
    0.1577              -16.32         -2.327          13.15          36.53          8.571         -4.643         -96.56          41.86          85.79          91.17          81.69
     0.166              -16.35         -2.326          13.19          36.53          8.562         -4.642         -96.51          41.87          85.77          91.14          81.72
    0.1743              -16.37         -2.326          13.22          36.54          8.551          -4.64         -96.45          41.88          85.75          91.12          81.75
    0.1826               -16.4         -2.325          13.27          36.54           8.54         -4.637         -96.39          41.89          85.73          91.09          81.79
     0.191              -16.43         -2.325          13.31          36.54          8.528         -4.635         -96.32           41.9           85.7          91.05          81.83
    0.1993              -16.46         -2.324          13.36          36.55          8.514         -4.632         -96.24          41.92          85.67          91.02          81.88
    0.2076               -16.5         -2.323          13.42          36.55          8.499         -4.629         -96.15          41.93          85.64          90.98          81.93
    0.2159              -16.54         -2.323          13.48          36.56          8.482         -4.626         -96.05          41.95           85.6          90.93          81.99
    0.2242              -16.59         -2.322          13.55          36.57          8.462         -4.622         -95.94          41.97          85.56          90.88          82.05
    0.2325              -16.65         -2.321          13.63          36.57           8.44         -4.618         -95.81           42.0          85.52          90.82          82.12
    0.2408              -16.71          -2.32          13.72          36.58          8.415         -4.613         -95.67          42.03          85.46          90.76          82.21
    0.2491              -16.78         -2.318          13.83          36.59          8.387         -4.608         -95.51          42.06           85.4          90.68           82.3
    0.2574              -16.86         -2.317          13.95           36.6          8.355         -4.601         -95.32          42.09          85.34           90.6          82.41
    0.2657              -16.95         -2.315          14.08          36.61          8.317         -4.594         -95.11          42.13          85.26           90.5          82.54
     0.274              -17.06         -2.313          14.24          36.63          8.273         -4.586         -94.86          42.18          85.17          90.38          82.68
    0.2823              -17.18         -2.311          14.43          36.65          8.222         -4.576         -94.56          42.24          85.06          90.25          82.85
    0.2906              -17.33         -2.308          14.65          36.67          8.162         -4.564         -94.22          42.31          84.93          90.09          83.05
    0.2989              -17.51         -2.305          14.92          36.69          8.091          -4.55         -93.81          42.38          84.78           89.9          83.29
    0.3072              -17.72         -2.301          15.23          36.72          8.005         -4.533         -93.31          42.48           84.6          89.67          83.58
    0.3155              -17.98         -2.296          15.61          36.75          7.901         -4.513         -92.72          42.59          84.39           89.4          83.93
    0.3238              -18.29         -2.291          16.08          36.79          7.774         -4.489         -91.99          42.73          84.12          89.06          84.35
    0.3321              -18.68         -2.284          16.65          36.85          7.618         -4.458         -91.09           42.9          83.79          88.65          84.87
    0.3404              -19.16         -2.275          17.37          36.91          7.423          -4.42         -89.97          43.12          83.39          88.13          85.52
    0.3487              -19.77         -2.264          18.27          36.99          7.177         -4.372         -88.56          43.39          82.87          87.48          86.34
     0.357              -20.54          -2.25          19.41           37.1          6.865         -4.312         -86.76          43.73          82.22          86.65          87.39
    0.3653              -21.52         -2.232          20.88          37.23          6.465         -4.234         -84.47          44.17          81.38          85.59          88.72
    0.3736              -22.79         -2.209          22.77           37.4          5.952         -4.134         -81.52          44.74          80.31          84.23          90.43
    0.3819              -24.41         -2.179          25.17          37.62          5.297         -4.007         -77.76          45.46          78.94           82.5          92.62
    0.3902              -26.45         -2.142          28.19          37.89          4.473         -3.847         -73.02          46.37          77.21          80.32          95.38
    0.3985              -28.93         -2.097          31.88          38.22          3.469         -3.652         -67.25          47.47          75.11          77.66          98.73
